# xmcd
#
# Track frame offsets: 
#        150
#        14650
#        30287
#        49132
#        67575
#        85107
#        104140
#        119807
#        132897
#        156082
#        168087
#        187197
#        202340
#        218940
#        236897
#        251900
#
# Disc length: 3591 seconds
#
# Revision: 0
# Processed by: cddbd v1.5.2PL0 Copyright (c) Steve Scherf et al.
# Submitted via: ExactAudioCopy v0.99pb4
#
DISCID=ee0e0510
DTITLE=Various Artist - Beach N Boogie, Vol. 2
DYEAR=1998
DGENRE=Blues
TTITLE0=Jackie Payne- Talk to Me Baby
TTITLE1=Deitra Farr- The Search Is Over
TTITLE2=Sweet Betty- You're a Two Timin' Man
TTITLE3=Mick Martin and the Blues Rockers- Can't Get Enough
TTITLE4=Johnnie Marshall- On My Way to Memphis
TTITLE5=Randy Mcallister- Down in the Gutter
TTITLE6=Kenny "Blue" Ray- What's on Your Mind
TTITLE7=Willie Edwards- True What They Say
TTITLE8=Guitar Shorty- Kick Out
TTITLE9=Jackie Payne- Hit the Ground Running
TTITLE10=Lonnie Shields- Every Man Needs a Good Woman
TTITLE11=Andrew "Jr. Boy" Jones- You're a Dog
TTITLE12=Percy Strother- She Gives Me Good Lovings
TTITLE13=Joe Coronado- Know Who Your Friends Are
TTITLE14=The Griswolds- Foot Stompin'
TTITLE15=J.B. Wynne- Are You Sticking With Me Baby
EXTD=
EXTT0=
EXTT1=
EXTT2=
EXTT3=
EXTT4=
EXTT5=
EXTT6=
EXTT7=
EXTT8=
EXTT9=
EXTT10=
EXTT11=
EXTT12=
EXTT13=
EXTT14=
EXTT15=
PLAYORDER=
